<?xml version="1.0" encoding="UTF-8" standalone="no"?>
<!-- Created with Inkscape (http://www.inkscape.org/) -->

<svg
   version="1.1"
   id="svg620"
   width="774.40002"
   height="286.39999"
   viewBox="0 0 774.40002 286.39999"
   sodipodi:docname="line.svg"
   inkscape:version="1.2.2 (732a01da63, 2022-12-09)"
   xmlns:inkscape="http://www.inkscape.org/namespaces/inkscape"
   xmlns:sodipodi="http://sodipodi.sourceforge.net/DTD/sodipodi-0.dtd"
   xmlns="http://www.w3.org/2000/svg"
   xmlns:svg="http://www.w3.org/2000/svg">
  <defs
     id="defs624" />
  <sodipodi:namedview
     id="namedview622"
     pagecolor="#ffffff"
     bordercolor="#000000"
     borderopacity="0.25"
     inkscape:showpageshadow="2"
     inkscape:pageopacity="0.0"
     inkscape:pagecheckerboard="0"
     inkscape:deskcolor="#d1d1d1"
     showgrid="false"
     inkscape:zoom="1.6916322"
     inkscape:cx="387.49558"
     inkscape:cy="143.0571"
     inkscape:window-width="1920"
     inkscape:window-height="991"
     inkscape:window-x="-9"
     inkscape:window-y="-9"
     inkscape:window-maximized="1"
     inkscape:current-layer="g626" />
  <g
     inkscape:groupmode="layer"
     inkscape:label="Image"
     id="g626">
    <path
       style="fill:#ffffff;stroke:white;stroke-width:0.8"
       d="M 384.70206,280.79999 H 0 v -75.94998 -75.94999 l 23.400001,7.87224 23.4,7.87224 34.000001,11.72112 33.999998,11.72111 17.6,5.22452 17.6,5.22452 16.8,4.27786 16.8,4.27786 14.40001,2.82994 14.4,2.82995 11.2,1.59635 11.2,1.59636 12.8,1.40819 12.8,1.40819 28.4,0.0198 28.4,0.0198 11.2,-1.04164 11.2,-1.04164 13.97255,-1.99252 13.97256,-1.99252 15.62744,-3.1124 15.62745,-3.1124 14.4,-3.70276 14.4,-3.70276 11.2,-3.21698 11.2,-3.21698 18.4,-5.89001 18.4,-5.89001 57.34615,-19.58217 57.34615,-19.58217 10.71583,-3.23615 10.71581,-3.23615 18.73803,-4.87204 18.73804,-4.87203 15.69787,-3.16048 15.69787,-3.160479 13.53627,-1.992152 13.53627,-1.992152 13.56585,-1.196688 13.56587,-1.19668 12.8,-0.004 12.8,-0.004 -0.21314,92.933931 -0.21314,92.93393 -0.88482,1.06615 -0.88481,1.06613 H 384.70206 Z m 0.43212,-4.19917 381.66584,-0.20083 v -90.4 -90.399993 l -4,-0.267896 -4,-0.267896 -14,0.897296 -14,0.897304 -10.4,1.196704 -10.4,1.196704 -10.8,1.623227 -10.8,1.62324 -13.2,2.79994 -13.2,2.79993 -17.6,4.43711 -17.6,4.43711 -14,4.26689 -14,4.26689 -57.20001,19.5266 -57.2,19.52659 -19.2,6.07055 -19.2,6.07054 -8.4,2.4072 -8.4,2.40719 -16,4.00374 -16,4.00375 -9.6,2.06881 -9.6,2.06882 -15.2,2.33747 -15.2,2.33746 -11.2,1.21024 -11.2,1.21023 -15.78263,0.81675 -15.78264,0.81674 -19.41736,-0.79225 -19.41737,-0.79226 -8.4,-0.82623 -8.4,-0.82622 -9.2,-1.24023 -9.2,-1.24021 -12.98039,-2.33628 -12.98038,-2.33627 -13.81962,-3.21636 L 166,185.56657 l -15.6,-4.34589 -15.6,-4.34589 -11.6,-3.5448 -11.6,-3.5448 -53.898658,-18.47884 -53.8986604,-18.47883 -0.7013407,0.43345 -0.7013408,0.43345 v 71.01945 71.01946 l 0.5341641,0.53416 0.534164,0.53416 z"
       id="path670" />
    <path
       style="fill:#ffffff;stroke:white;stroke-width:0.591145"
       d="m 3.0542495,275.96622 c -0.2167532,-0.21675 -0.3940967,-32.27995 -0.3940967,-71.25153 0,-56.14095 0.1534697,-70.91621 0.7389313,-71.14039 0.4064122,-0.15562 24.8133139,7.97626 54.2375589,18.07085 29.424245,10.09458 59.084947,20.05559 65.912677,22.13557 40.43853,12.3191 73.64945,20.05575 104.04153,24.23698 16.02622,2.20483 27.09773,3.12226 47.26227,3.91633 29.01087,1.14245 54.85514,-0.5145 88.40552,-5.66791 16.65163,-2.55772 27.91116,-4.90631 49.95019,-10.41892 31.36491,-7.8453 50.62637,-13.91452 128.28004,-40.42058 63.24513,-21.5879 78.49088,-26.40907 103.45039,-32.71416 38.15545,-9.63855 64.95602,-14.105789 98.13008,-16.356765 13.91549,-0.944218 19.89203,-1.083499 22.02015,-0.513178 l 1.33008,0.356447 v 90.080676 90.08067 H 384.93396 c -209.81709,0 -381.6629574,-0.17734 -381.8797105,-0.39409 z"
       id="path886" />
    <path
       style="fill:#ffffff;stroke:white;stroke-width:0.591145"
       d="m 771.28587,160.49588 c 0,-1.13795 0.12166,-1.60348 0.27035,-1.0345 0.14869,0.56898 0.14869,1.50003 0,2.06901 -0.14869,0.56897 -0.27035,0.10345 -0.27035,-1.03451 z"
       id="path957" />
    <path
       style="fill:#ffffff;stroke:white;stroke-width:0.591145"
       d="m 0.29557253,204.95373 v -75.5446 l 25.86259647,8.67998 c 14.224428,4.77399 39.828398,13.50386 56.897711,19.39971 68.84351,23.77897 110.77107,34.07674 162.73991,39.9703 12.0756,1.36945 14.80646,1.46119 43.49203,1.46119 33.84649,0 38.70303,-0.29552 64.14389,-3.90322 25.81559,-3.66084 54.68787,-9.9982 84.90235,-18.63576 18.51547,-5.29311 46.54736,-14.48759 105.22382,-34.51349 63.64398,-21.72129 72.87672,-24.64501 99.60794,-31.54285 42.83585,-11.053542 84.08654,-17.219644 115.19792,-17.219644 h 12.78499 V 185.8235 c 0,89.07309 -0.0426,92.75662 -1.08103,93.69649 -1.00365,0.90824 -28.61857,0.97834 -385.4266,0.97834 H 0.29557253 Z M 767.01071,186.24691 V 95.542369 l -2.80794,-0.431353 c -3.51855,-0.540517 -31.42627,1.167867 -44.79017,2.741849 -25.19437,2.967355 -42.72016,6.321485 -74.47334,14.252875 -25.88678,6.46605 -38.60006,10.47618 -104.3954,32.92916 -53.79396,18.35745 -86.00818,28.89357 -104.86995,34.29923 -44.2289,12.67571 -86.98655,20.08302 -126.97163,21.99648 -23.62621,1.13061 -54.59181,-0.29356 -79.338,-3.64891 -22.95986,-3.11315 -50.92151,-9.01024 -76.98983,-16.23711 -25.1039,-6.9595 -38.62531,-11.31457 -93.762057,-30.1995 C 28.749425,141.01669 3.8769966,132.73256 3.3403327,132.8359 c -0.8994612,0.17321 -0.9876456,5.75677 -1.1278634,71.4128 -0.083661,39.17369 -0.025506,71.55742 0.1292333,71.96383 0.2246748,0.59009 77.2642554,0.73893 382.4751774,0.73893 h 382.19383 z"
       id="path959" />
    <path
       style="fill:#ffffff;stroke:white;stroke-width:0.591145"
       d=""
       id="path961" />
  </g>
</svg>
