<?xml version="1.0" encoding="UTF-8" standalone="no"?>
<!-- Created with Inkscape (http://www.inkscape.org/) -->

<svg
   version="1.1"
   id="svg2"
   width="472.61539"
   height="472.61539"
   viewBox="0 0 472.61539 472.61539"
   sodipodi:docname="hand.svg"
   inkscape:version="1.2.2 (732a01da63, 2022-12-09)"
   xmlns:inkscape="http://www.inkscape.org/namespaces/inkscape"
   xmlns:sodipodi="http://sodipodi.sourceforge.net/DTD/sodipodi-0.dtd"
   xmlns="http://www.w3.org/2000/svg"
   xmlns:svg="http://www.w3.org/2000/svg">
  <defs
     id="defs6" />
  <sodipodi:namedview
     id="namedview4"
     pagecolor="#ffffff"
     bordercolor="#000000"
     borderopacity="0.25"
     inkscape:showpageshadow="2"
     inkscape:pageopacity="0.0"
     inkscape:pagecheckerboard="0"
     inkscape:deskcolor="#d1d1d1"
     showgrid="false"
     inkscape:zoom="1.2875855"
     inkscape:cx="239.59573"
     inkscape:cy="239.59573"
     inkscape:window-width="1920"
     inkscape:window-height="991"
     inkscape:window-x="-9"
     inkscape:window-y="-9"
     inkscape:window-maximized="1"
     inkscape:current-layer="g8" />
  <g
     inkscape:groupmode="layer"
     inkscape:label="Image"
     id="g8">
     <defs>
    <linearGradient id="myGradient" gradientTransform="rotate(90)">
      <stop offset="10%" stop-color="#e600ff" />
      <stop offset="95%" stop-color="#ff7700" />
    </linearGradient>
</defs>
    <path
       style="opacity:1;fill:url('#myGradient');stroke-width:0.923077"
       d="m 200.73341,471.8757 c -33.33614,-3.98424 -58.81847,-14.29689 -82.97159,-33.5784 -28.896798,-23.06843 -47.345793,-53.5658 -55.688943,-92.05741 -1.89033,-8.72118 -1.97299,-11.74523 -2.3151,-84.69817 -0.39783,-84.8335 -0.47364,-83.63853 6.00175,-94.59863 13.3653,-22.62178 42.211523,-29.69821 64.204863,-15.75045 2.40437,1.52481 4.66871,2.76167 5.03185,2.74857 0.36314,-0.0131 1.43449,-1.70206 2.38077,-3.75326 2.23053,-4.83493 10.51724,-13.75608 16.11359,-17.34724 12.01017,-7.70691 29.12985,-9.25199 41.56501,-3.75133 2.26432,1.00161 4.33113,1.60693 4.59291,1.34515 0.26178,-0.26178 -3.34516,-18.23221 -8.01543,-39.934269 -5.5451,-25.767266 -8.48216,-41.392795 -8.46477,-45.033601 0.0582,-12.173799 4.52216,-22.444956 13.86043,-31.891176 18.0621,-18.2708952 45.97766,-18.2076308 64.61891,0.146444 9.84691,9.695209 8.62498,5.583361 31.64716,106.494092 3.23604,14.1842 6.11621,25.39958 6.40038,24.92307 0.28416,-0.4765 8.28517,-24.75099 17.78003,-53.943289 9.49486,-29.19231 18.2255,-54.738464 19.40145,-56.769233 9.93629,-17.159248 28.50057,-26.4377871 47.14876,-23.56523 21.93811,3.379337 39.16951,23.309331 39.16951,45.303817 0,7.45574 -0.87192,10.458131 -28.99113,99.829075 l -25.47041,80.95228 v 43.93025 c 0,24.95101 -0.42604,47.80283 -0.98615,52.89388 -2.06967,18.81235 -6.98783,35.61102 -15.2934,52.23681 -22.40582,44.85114 -63.49578,75.58971 -112.48968,84.15124 -8.08749,1.41326 -32.74331,2.49237 -39.23077,1.71701 z m 25.97912,-19.79122 c 31.63688,-3.16875 59.75509,-16.4407 81.99071,-38.70004 16.11879,-16.13599 26.27204,-32.40022 33.17224,-53.13781 6.93402,-20.83919 6.99409,-21.56351 7.00346,-84.43545 0.007,-51.04788 -0.12935,-56.15056 -1.59398,-59.38911 -2.77717,-6.14076 -6.96266,-10.51856 -12.88676,-13.47888 l -5.65196,-2.82432 h -72.6936 -72.69358 l -2.38975,2.84006 c -2.79755,3.3247 -3.02374,6.81669 -0.99808,15.4084 3.73717,15.85087 15.61583,28.14763 31.77587,32.89427 4.20414,1.23487 10.70278,1.47266 40.24688,1.47266 22.74326,0 36.24208,0.35171 38.07924,0.99214 5.43866,1.89593 7.70132,9.25723 4.39598,14.30181 -2.09592,3.19878 -4.11045,3.86065 -15.16618,4.98283 -10.67875,1.0839 -23.3837,4.89423 -31.49269,9.4449 -20.23646,11.35652 -35.41515,31.78548 -40.22479,54.13846 -0.7266,3.37692 -1.59597,13.61374 -1.93193,22.74848 -0.60847,16.54479 -0.6206,16.61841 -3.15604,19.15385 -4.83562,4.83562 -13.18879,2.91432 -15.66686,-3.60351 -1.18242,-3.10999 -1.08855,-22.9202 0.15676,-33.08204 2.94613,-24.04094 14.08987,-45.73807 32.05496,-62.41178 l 7.57143,-7.02718 -8.55562,-0.47201 c -4.94572,-0.27286 -10.8283,-1.25076 -13.94203,-2.31768 l -5.38642,-1.84567 -6.15204,2.17154 c -13.24785,4.67621 -30.39262,2.00491 -42.24774,-6.58257 -1.8665,-1.35203 -2.08143,-1.16783 -5.53846,4.74662 -12.26756,20.98791 -39.61982,28.61412 -61.032243,17.01665 l -4.87205,-2.63882 v 19.79376 c 0,21.84344 0.97914,33.50539 3.86457,46.02868 11.473145,49.79563 51.423293,89.60308 101.366203,101.00412 15.29445,3.49144 27.64173,4.30533 42.5945,2.80764 z M 117.27901,267.96434 c 2.71992,-1.33074 6.38732,-4.10418 8.14976,-6.16319 5.84861,-6.83279 6.07387,-8.4806 6.07387,-44.43192 0,-21.31067 -0.35406,-33.4487 -1.04274,-35.74731 -1.74208,-5.81452 -7.18812,-12.09106 -13.12623,-15.12792 -13.05733,-6.67776 -28.360538,-1.53809 -35.528833,11.93257 l -2.45604,4.61538 -0.28683,31.19902 c -0.32065,34.87618 0.1236,39.10403 4.7409,45.11833 8.768355,11.42133 21.192383,14.61491 33.476143,8.60504 z m 56.39378,-19.15316 c -5.14877,-6.34348 -8.63584,-12.6611 -11.33634,-20.53846 -2.12801,-6.20737 -2.54342,-9.00333 -2.60579,-17.53846 -0.0642,-8.77993 0.20892,-10.72838 2.018,-14.39987 2.86035,-5.80501 8.00376,-10.78308 14.0279,-13.57694 4.34175,-2.01361 6.70017,-2.39874 16.95743,-2.76912 l 11.91428,-0.43022 -0.41421,-7.15532 c -0.95409,-16.4814 -11.32518,-26.76161 -26.97278,-26.73644 -7.17242,0.0115 -13.5158,2.88891 -18.61484,8.44372 -6.90956,7.52716 -6.95869,7.87075 -6.64866,46.48617 l 0.27409,34.13802 2.53195,4.30711 c 4.37019,7.43415 13.07405,13.38694 19.91447,13.62001 2.06183,0.0702 2.02425,-0.0681 -1.0455,-3.8502 z M 381.74657,130.42657 c 24.23764,-76.917971 23.93531,-75.556572 19.0075,-85.591614 -4.68508,-9.540758 -13.0426,-14.581986 -24.10817,-14.541962 -9.25605,0.03348 -18.48342,5.669158 -22.63729,13.825882 -1.38991,2.729268 -44.35212,133.405844 -44.35212,134.904194 0,0.28257 4.67308,0.75381 10.38461,1.0472 6.56879,0.33742 12.64018,1.23894 16.52302,2.45343 7.3062,2.28525 16.36055,8.10221 20.36209,13.08158 1.58665,1.97439 2.97732,3.48612 3.09037,3.35939 0.11304,-0.12672 9.89154,-30.96887 21.72999,-68.5381 z m -95.16701,48.85331 c 0,-0.29222 -7.29094,-32.38068 -16.20209,-71.3077 C 252.40432,29.459274 252.7664,30.611626 244.16593,24.550037 230.79859,15.128763 213.1832,19.576183 205.6759,34.267754 c -4.38391,8.579166 -4.53154,7.499054 10.68897,78.205146 7.69932,35.76683 14.17277,65.54982 14.38545,66.18444 0.29789,0.88887 6.75256,1.15384 28.10797,1.15384 15.2467,0 27.72127,-0.23908 27.72127,-0.5313 z"
       id="path116" />
  </g>
</svg>
