<?xml version="1.0" standalone="no"?>
<svg xmlns:xlink="http://www.w3.org/1999/xlink" id="wave" style="transform:rotate(0deg); transition: 0.3s" viewBox="0 0 1440 490" version="1.1" xmlns="http://www.w3.org/2000/svg">
<defs><linearGradient id="sw-gradient-0" x1="0" x2="0" y1="1" y2="0"><stop stop-color="rgba(243, 106, 62, 1)" offset="0%"/><stop stop-color="rgba(255, 179, 11, 1)" offset="100%"/></linearGradient></defs>
<path style="transform:translate(0, 0px); opacity:1" fill="url(#sw-gradient-0)" d="M0,294L120,302.2C240,310,480,327,720,310.3C960,294,1200,245,1440,187.8C1680,131,1920,65,2160,65.3C2400,65,2640,131,2880,138.8C3120,147,3360,98,3600,138.8C3840,180,4080,310,4320,351.2C4560,392,4800,343,5040,294C5280,245,5520,196,5760,220.5C6000,245,6240,343,6480,367.5C6720,392,6960,343,7200,294C7440,245,7680,196,7920,187.8C8160,180,8400,212,8640,228.7C8880,245,9120,245,9360,277.7C9600,310,9840,376,10080,367.5C10320,359,10560,278,10800,261.3C11040,245,11280,294,11520,269.5C11760,245,12000,147,12240,130.7C12480,114,12720,180,12960,196C13200,212,13440,180,13680,212.3C13920,245,14160,343,14400,351.2C14640,359,14880,278,15120,253.2C15360,229,15600,261,15840,228.7C16080,196,16320,98,16560,122.5C16800,147,17040,294,17160,367.5L17280,441L17280,490L17160,490C17040,490,16800,490,16560,490C16320,490,16080,490,15840,490C15600,490,15360,490,15120,490C14880,490,14640,490,14400,490C14160,490,13920,490,13680,490C13440,490,13200,490,12960,490C12720,490,12480,490,12240,490C12000,490,11760,490,11520,490C11280,490,11040,490,10800,490C10560,490,10320,490,10080,490C9840,490,9600,490,9360,490C9120,490,8880,490,8640,490C8400,490,8160,490,7920,490C7680,490,7440,490,7200,490C6960,490,6720,490,6480,490C6240,490,6000,490,5760,490C5520,490,5280,490,5040,490C4800,490,4560,490,4320,490C4080,490,3840,490,3600,490C3360,490,3120,490,2880,490C2640,490,2400,490,2160,490C1920,490,1680,490,1440,490C1200,490,960,490,720,490C480,490,240,490,120,490L0,490Z"/><defs><linearGradient id="sw-gradient-1" x1="0" x2="0" y1="1" y2="0"><stop stop-color="rgba(243, 106, 62, 1)" offset="0%"/><stop stop-color="rgba(255, 179, 11, 1)" offset="100%"/></linearGradient></defs><path style="transform:translate(0, 50px); opacity:0.9" fill="url(#sw-gradient-1)" d="M0,441L120,432.8C240,425,480,408,720,359.3C960,310,1200,229,1440,220.5C1680,212,1920,278,2160,269.5C2400,261,2640,180,2880,147C3120,114,3360,131,3600,130.7C3840,131,4080,114,4320,98C4560,82,4800,65,5040,73.5C5280,82,5520,114,5760,114.3C6000,114,6240,82,6480,57.2C6720,33,6960,16,7200,81.7C7440,147,7680,294,7920,302.2C8160,310,8400,180,8640,114.3C8880,49,9120,49,9360,65.3C9600,82,9840,114,10080,171.5C10320,229,10560,310,10800,359.3C11040,408,11280,425,11520,416.5C11760,408,12000,376,12240,343C12480,310,12720,278,12960,253.2C13200,229,13440,212,13680,245C13920,278,14160,359,14400,392C14640,425,14880,408,15120,367.5C15360,327,15600,261,15840,228.7C16080,196,16320,196,16560,171.5C16800,147,17040,98,17160,73.5L17280,49L17280,490L17160,490C17040,490,16800,490,16560,490C16320,490,16080,490,15840,490C15600,490,15360,490,15120,490C14880,490,14640,490,14400,490C14160,490,13920,490,13680,490C13440,490,13200,490,12960,490C12720,490,12480,490,12240,490C12000,490,11760,490,11520,490C11280,490,11040,490,10800,490C10560,490,10320,490,10080,490C9840,490,9600,490,9360,490C9120,490,8880,490,8640,490C8400,490,8160,490,7920,490C7680,490,7440,490,7200,490C6960,490,6720,490,6480,490C6240,490,6000,490,5760,490C5520,490,5280,490,5040,490C4800,490,4560,490,4320,490C4080,490,3840,490,3600,490C3360,490,3120,490,2880,490C2640,490,2400,490,2160,490C1920,490,1680,490,1440,490C1200,490,960,490,720,490C480,490,240,490,120,490L0,490Z"/></svg>